<svg width="336" height="374" viewBox="0 0 336 374" fill="none" xmlns="http://www.w3.org/2000/svg">
<path d="M233.793 379.765L336 431.319C311.089 463.646 279.402 489.509 240.937 508.905C202.838 528.302 161.442 538 116.75 538C66.1958 538 20.0378 525.92 -21.7241 501.759C-63.1198 477.598 -96.2729 445.271 -121.184 404.776C-145.728 363.941 -158 318.853 -158 269.51C-158 232.078 -150.857 197.199 -136.57 164.871C-122.283 132.203 -102.684 103.619 -77.7731 79.1176C-52.4961 54.2764 -23.1895 34.8798 10.1468 20.9279C43.4831 6.97596 79.0174 0 116.75 0C161.442 0 202.838 9.69828 240.937 29.0948C279.402 48.4914 311.089 74.5237 336 107.192L233.793 158.746C218.407 141.731 200.457 128.8 179.942 119.953C159.427 110.765 138.363 106.171 116.75 106.171C86.7104 106.171 59.4186 113.827 34.8743 129.14C10.6963 144.113 -8.53615 164.02 -22.8231 188.861C-36.7438 213.362 -43.7041 240.245 -43.7041 269.51C-43.7041 298.435 -36.5606 325.318 -22.2736 350.159C-7.98666 374.66 11.2458 394.397 35.4238 409.37C59.9681 424.343 87.0767 431.829 116.75 431.829C139.462 431.829 161.076 427.065 181.591 417.537C202.105 408.009 219.506 395.418 233.793 379.765Z" fill="white" fill-opacity="0.2"/>
</svg>
