<svg width="573" height="434" viewBox="0 0 573 434" fill="none" xmlns="http://www.w3.org/2000/svg">
<path d="M454.448 439.765L573 499.464C544.106 536.899 507.35 566.847 462.734 589.308C418.543 611.769 370.527 623 318.687 623C260.049 623 206.509 609.011 158.069 581.033C110.053 553.055 71.5984 515.62 42.7041 468.728C14.2347 421.441 0 369.229 0 312.091C0 268.745 8.28587 228.355 24.8576 190.919C41.4294 153.09 64.1624 119.99 93.0567 91.6176C122.376 62.8517 156.369 40.3906 195.037 24.2343C233.704 8.07811 274.921 0 318.687 0C370.527 0 418.543 11.2305 462.734 33.6916C507.35 56.1527 544.106 86.2979 573 124.127L454.448 183.826C436.602 164.124 415.781 149.15 391.986 138.904C368.19 128.265 343.757 122.945 318.687 122.945C283.844 122.945 252.188 131.811 223.719 149.544C195.674 166.882 173.366 189.934 156.794 218.7C140.647 247.072 132.574 278.202 132.574 312.091C132.574 345.586 140.86 376.716 157.432 405.482C174.003 433.854 196.311 456.709 224.356 474.047C252.825 491.386 284.269 500.055 318.687 500.055C345.032 500.055 370.102 494.538 393.898 483.505C417.693 472.471 437.876 457.891 454.448 439.765Z" fill="white" fill-opacity="0.2"/>
</svg>
