<svg width="1440" height="114" viewBox="0 0 1440 114" fill="none" xmlns="http://www.w3.org/2000/svg">
<path d="M333.017 63H330.381L334.398 51.3636H337.568L341.58 63H338.943L336.028 54.0227H335.938L333.017 63ZM332.852 58.4261H339.08V60.3466H332.852V58.4261ZM342.98 63V51.3636H345.401V55.7386H345.474C345.58 55.5038 345.734 55.2652 345.935 55.0227C346.139 54.7765 346.404 54.572 346.73 54.4091C347.06 54.2424 347.469 54.1591 347.957 54.1591C348.594 54.1591 349.181 54.3258 349.719 54.6591C350.257 54.9886 350.687 55.4867 351.009 56.1534C351.33 56.8163 351.491 57.6477 351.491 58.6477C351.491 59.6212 351.334 60.4432 351.02 61.1136C350.709 61.7803 350.285 62.286 349.747 62.6307C349.213 62.9716 348.615 63.142 347.952 63.142C347.482 63.142 347.082 63.0644 346.753 62.9091C346.427 62.7538 346.16 62.5587 345.952 62.3239C345.743 62.0852 345.584 61.8447 345.474 61.6023H345.366V63H342.98ZM345.349 58.6364C345.349 59.1553 345.421 59.608 345.565 59.9943C345.709 60.3807 345.918 60.6818 346.19 60.8977C346.463 61.1098 346.795 61.2159 347.185 61.2159C347.579 61.2159 347.912 61.108 348.185 60.892C348.457 60.6723 348.664 60.3693 348.804 59.983C348.948 59.5928 349.02 59.1439 349.02 58.6364C349.02 58.1326 348.95 57.6894 348.81 57.3068C348.67 56.9242 348.463 56.625 348.19 56.4091C347.918 56.1932 347.582 56.0852 347.185 56.0852C346.791 56.0852 346.457 56.1894 346.185 56.3977C345.916 56.6061 345.709 56.9015 345.565 57.2841C345.421 57.6667 345.349 58.1174 345.349 58.6364ZM357.05 63.1705C356.167 63.1705 355.404 62.983 354.76 62.608C354.12 62.2292 353.625 61.7027 353.277 61.0284C352.929 60.3504 352.754 59.5644 352.754 58.6705C352.754 57.7689 352.929 56.9811 353.277 56.3068C353.625 55.6288 354.12 55.1023 354.76 54.7273C355.404 54.3485 356.167 54.1591 357.05 54.1591C357.932 54.1591 358.694 54.3485 359.334 54.7273C359.978 55.1023 360.474 55.6288 360.822 56.3068C361.171 56.9811 361.345 57.7689 361.345 58.6705C361.345 59.5644 361.171 60.3504 360.822 61.0284C360.474 61.7027 359.978 62.2292 359.334 62.608C358.694 62.983 357.932 63.1705 357.05 63.1705ZM357.061 61.2955C357.463 61.2955 357.798 61.1818 358.067 60.9545C358.336 60.7235 358.538 60.4091 358.675 60.0114C358.815 59.6136 358.885 59.161 358.885 58.6534C358.885 58.1458 358.815 57.6932 358.675 57.2955C358.538 56.8977 358.336 56.5833 358.067 56.3523C357.798 56.1212 357.463 56.0057 357.061 56.0057C356.656 56.0057 356.315 56.1212 356.038 56.3523C355.766 56.5833 355.559 56.8977 355.419 57.2955C355.283 57.6932 355.214 58.1458 355.214 58.6534C355.214 59.161 355.283 59.6136 355.419 60.0114C355.559 60.4091 355.766 60.7235 356.038 60.9545C356.315 61.1818 356.656 61.2955 357.061 61.2955ZM368.516 59.2841V54.2727H370.936V63H368.612V61.4148H368.521C368.324 61.9261 367.997 62.3371 367.538 62.6477C367.084 62.9583 366.529 63.1136 365.874 63.1136C365.29 63.1136 364.777 62.9811 364.334 62.7159C363.891 62.4508 363.544 62.0739 363.294 61.5852C363.048 61.0966 362.923 60.5114 362.919 59.8295V54.2727H365.339V59.3977C365.343 59.9129 365.482 60.3201 365.754 60.6193C366.027 60.9186 366.393 61.0682 366.851 61.0682C367.143 61.0682 367.415 61.0019 367.669 60.8693C367.923 60.733 368.127 60.5322 368.283 60.267C368.442 60.0019 368.519 59.6742 368.516 59.2841ZM377.514 54.2727V56.0909H372.259V54.2727H377.514ZM373.452 52.1818H375.872V60.3182C375.872 60.5417 375.906 60.7159 375.974 60.8409C376.043 60.9621 376.137 61.0473 376.259 61.0966C376.384 61.1458 376.527 61.1705 376.69 61.1705C376.804 61.1705 376.918 61.161 377.031 61.142C377.145 61.1193 377.232 61.1023 377.293 61.0909L377.673 62.892C377.552 62.9299 377.382 62.9735 377.162 63.0227C376.942 63.0758 376.675 63.108 376.361 63.1193C375.777 63.142 375.266 63.0644 374.827 62.8864C374.391 62.7083 374.052 62.4318 373.81 62.0568C373.567 61.6818 373.448 61.2083 373.452 60.6364V52.1818Z" fill="#FACC15"/>
<path d="M412.409 63V51.3636H416.477C417.288 51.3636 417.956 51.5038 418.483 51.7841C419.009 52.0606 419.402 52.4337 419.659 52.9034C419.917 53.3693 420.045 53.8864 420.045 54.4545C420.045 54.9545 419.956 55.3674 419.778 55.6932C419.604 56.0189 419.373 56.2765 419.085 56.4659C418.801 56.6553 418.492 56.7955 418.159 56.8864V57C418.515 57.0227 418.873 57.1477 419.233 57.375C419.593 57.6023 419.894 57.928 420.136 58.3523C420.379 58.7765 420.5 59.2955 420.5 59.9091C420.5 60.4924 420.367 61.017 420.102 61.483C419.837 61.9489 419.419 62.3182 418.847 62.5909C418.275 62.8636 417.53 63 416.614 63H412.409ZM413.818 61.75H416.614C417.534 61.75 418.188 61.572 418.574 61.2159C418.964 60.8561 419.159 60.4205 419.159 59.9091C419.159 59.5152 419.059 59.1515 418.858 58.8182C418.657 58.4811 418.371 58.2121 418 58.0114C417.629 57.8068 417.189 57.7045 416.682 57.7045H413.818V61.75ZM413.818 56.4773H416.432C416.856 56.4773 417.239 56.3939 417.58 56.2273C417.924 56.0606 418.197 55.8258 418.398 55.5227C418.602 55.2197 418.705 54.8636 418.705 54.4545C418.705 53.9432 418.527 53.5095 418.17 53.1534C417.814 52.7936 417.25 52.6136 416.477 52.6136H413.818V56.4773ZM423.974 51.3636V63H422.634V51.3636H423.974ZM429.976 63.1818C429.188 63.1818 428.497 62.9943 427.902 62.6193C427.311 62.2443 426.849 61.7197 426.516 61.0455C426.186 60.3712 426.021 59.5833 426.021 58.6818C426.021 57.7727 426.186 56.9792 426.516 56.3011C426.849 55.6231 427.311 55.0966 427.902 54.7216C428.497 54.3466 429.188 54.1591 429.976 54.1591C430.764 54.1591 431.453 54.3466 432.044 54.7216C432.639 55.0966 433.101 55.6231 433.43 56.3011C433.764 56.9792 433.93 57.7727 433.93 58.6818C433.93 59.5833 433.764 60.3712 433.43 61.0455C433.101 61.7197 432.639 62.2443 432.044 62.6193C431.453 62.9943 430.764 63.1818 429.976 63.1818ZM429.976 61.9773C430.574 61.9773 431.067 61.8239 431.453 61.517C431.839 61.2102 432.125 60.8068 432.311 60.3068C432.497 59.8068 432.589 59.2652 432.589 58.6818C432.589 58.0985 432.497 57.5549 432.311 57.0511C432.125 56.5473 431.839 56.1402 431.453 55.8295C431.067 55.5189 430.574 55.3636 429.976 55.3636C429.377 55.3636 428.885 55.5189 428.499 55.8295C428.112 56.1402 427.826 56.5473 427.641 57.0511C427.455 57.5549 427.362 58.0985 427.362 58.6818C427.362 59.2652 427.455 59.8068 427.641 60.3068C427.826 60.8068 428.112 61.2102 428.499 61.517C428.885 61.8239 429.377 61.9773 429.976 61.9773ZM439.5 66.4545C438.852 66.4545 438.295 66.3712 437.83 66.2045C437.364 66.0417 436.975 65.8258 436.665 65.5568C436.358 65.2917 436.114 65.0076 435.932 64.7045L437 63.9545C437.121 64.1136 437.275 64.2955 437.46 64.5C437.646 64.7083 437.9 64.8883 438.222 65.0398C438.547 65.1951 438.973 65.2727 439.5 65.2727C440.205 65.2727 440.786 65.1023 441.244 64.7614C441.703 64.4205 441.932 63.8864 441.932 63.1591V61.3864H441.818C441.72 61.5455 441.58 61.7424 441.398 61.9773C441.22 62.2083 440.962 62.4148 440.625 62.5966C440.292 62.7746 439.841 62.8636 439.273 62.8636C438.568 62.8636 437.936 62.697 437.375 62.3636C436.818 62.0303 436.377 61.5455 436.051 60.9091C435.729 60.2727 435.568 59.5 435.568 58.5909C435.568 57.697 435.725 56.9186 436.04 56.2557C436.354 55.589 436.792 55.0739 437.352 54.7102C437.913 54.3428 438.561 54.1591 439.295 54.1591C439.864 54.1591 440.314 54.2538 440.648 54.4432C440.985 54.6288 441.242 54.8409 441.42 55.0795C441.602 55.3144 441.742 55.5076 441.841 55.6591H441.977V54.2727H443.273V63.25C443.273 64 443.102 64.6098 442.761 65.0795C442.424 65.553 441.97 65.8996 441.398 66.1193C440.83 66.3428 440.197 66.4545 439.5 66.4545ZM439.455 61.6591C439.992 61.6591 440.447 61.536 440.818 61.2898C441.189 61.0436 441.472 60.6894 441.665 60.2273C441.858 59.7652 441.955 59.2121 441.955 58.5682C441.955 57.9394 441.86 57.3845 441.67 56.9034C441.481 56.4223 441.201 56.0455 440.83 55.7727C440.458 55.5 440 55.3636 439.455 55.3636C438.886 55.3636 438.413 55.5076 438.034 55.7955C437.659 56.0833 437.377 56.4697 437.188 56.9545C437.002 57.4394 436.909 57.9773 436.909 58.5682C436.909 59.1742 437.004 59.7102 437.193 60.1761C437.386 60.6383 437.67 61.0019 438.045 61.267C438.424 61.5284 438.894 61.6591 439.455 61.6591Z" fill="#EDEDED"/>
<path d="M478.409 63V51.3636H482.341C483.254 51.3636 484 51.5284 484.58 51.858C485.163 52.1837 485.595 52.625 485.875 53.1818C486.155 53.7386 486.295 54.3598 486.295 55.0455C486.295 55.7311 486.155 56.3542 485.875 56.9148C485.598 57.4754 485.17 57.9223 484.591 58.2557C484.011 58.5852 483.269 58.75 482.364 58.75H479.545V57.5H482.318C482.943 57.5 483.445 57.392 483.824 57.1761C484.203 56.9602 484.477 56.6686 484.648 56.3011C484.822 55.9299 484.909 55.5114 484.909 55.0455C484.909 54.5795 484.822 54.1629 484.648 53.7955C484.477 53.428 484.201 53.1402 483.818 52.9318C483.436 52.7197 482.928 52.6136 482.295 52.6136H479.818V63H478.409ZM490.952 63.2045C490.399 63.2045 489.897 63.1004 489.446 62.892C488.995 62.6799 488.637 62.375 488.372 61.9773C488.107 61.5758 487.974 61.0909 487.974 60.5227C487.974 60.0227 488.073 59.6174 488.27 59.3068C488.467 58.9924 488.73 58.7462 489.06 58.5682C489.389 58.3902 489.753 58.2576 490.151 58.1705C490.552 58.0795 490.955 58.0076 491.361 57.9545C491.891 57.8864 492.321 57.8352 492.651 57.8011C492.984 57.7633 493.226 57.7008 493.378 57.6136C493.533 57.5265 493.611 57.375 493.611 57.1591V57.1136C493.611 56.553 493.457 56.1174 493.151 55.8068C492.848 55.4962 492.387 55.3409 491.77 55.3409C491.13 55.3409 490.628 55.4811 490.264 55.7614C489.901 56.0417 489.645 56.3409 489.497 56.6591L488.224 56.2045C488.452 55.6742 488.755 55.2614 489.134 54.9659C489.516 54.6667 489.933 54.4583 490.384 54.3409C490.838 54.2197 491.285 54.1591 491.724 54.1591C492.005 54.1591 492.327 54.1932 492.69 54.2614C493.058 54.3258 493.412 54.4602 493.753 54.6648C494.098 54.8693 494.384 55.178 494.611 55.5909C494.838 56.0038 494.952 56.5568 494.952 57.25V63H493.611V61.8182H493.543C493.452 62.0076 493.3 62.2102 493.088 62.4261C492.876 62.642 492.594 62.8258 492.241 62.9773C491.889 63.1288 491.459 63.2045 490.952 63.2045ZM491.156 62C491.687 62 492.134 61.8958 492.497 61.6875C492.865 61.4792 493.141 61.2102 493.327 60.8807C493.516 60.5511 493.611 60.2045 493.611 59.8409V58.6136C493.554 58.6818 493.429 58.7443 493.236 58.8011C493.046 58.8542 492.827 58.9015 492.577 58.9432C492.33 58.9811 492.09 59.0152 491.855 59.0455C491.624 59.072 491.437 59.0947 491.293 59.1136C490.944 59.1591 490.618 59.233 490.315 59.3352C490.016 59.4337 489.774 59.5833 489.588 59.7841C489.406 59.9811 489.315 60.25 489.315 60.5909C489.315 61.0568 489.488 61.4091 489.832 61.6477C490.181 61.8826 490.622 62 491.156 62ZM500.922 66.4545C500.274 66.4545 499.717 66.3712 499.251 66.2045C498.786 66.0417 498.397 65.8258 498.087 65.5568C497.78 65.2917 497.536 65.0076 497.354 64.7045L498.422 63.9545C498.543 64.1136 498.696 64.2955 498.882 64.5C499.068 64.7083 499.321 64.8883 499.643 65.0398C499.969 65.1951 500.395 65.2727 500.922 65.2727C501.626 65.2727 502.208 65.1023 502.666 64.7614C503.125 64.4205 503.354 63.8864 503.354 63.1591V61.3864H503.24C503.142 61.5455 503.001 61.7424 502.82 61.9773C502.642 62.2083 502.384 62.4148 502.047 62.5966C501.714 62.7746 501.263 62.8636 500.695 62.8636C499.99 62.8636 499.357 62.697 498.797 62.3636C498.24 62.0303 497.799 61.5455 497.473 60.9091C497.151 60.2727 496.99 59.5 496.99 58.5909C496.99 57.697 497.147 56.9186 497.462 56.2557C497.776 55.589 498.214 55.0739 498.774 54.7102C499.335 54.3428 499.982 54.1591 500.717 54.1591C501.286 54.1591 501.736 54.2538 502.07 54.4432C502.407 54.6288 502.664 54.8409 502.842 55.0795C503.024 55.3144 503.164 55.5076 503.263 55.6591H503.399V54.2727H504.695V63.25C504.695 64 504.524 64.6098 504.183 65.0795C503.846 65.553 503.392 65.8996 502.82 66.1193C502.251 66.3428 501.619 66.4545 500.922 66.4545ZM500.876 61.6591C501.414 61.6591 501.869 61.536 502.24 61.2898C502.611 61.0436 502.893 60.6894 503.087 60.2273C503.28 59.7652 503.376 59.2121 503.376 58.5682C503.376 57.9394 503.282 57.3845 503.092 56.9034C502.903 56.4223 502.623 56.0455 502.251 55.7727C501.88 55.5 501.422 55.3636 500.876 55.3636C500.308 55.3636 499.835 55.5076 499.456 55.7955C499.081 56.0833 498.799 56.4697 498.609 56.9545C498.424 57.4394 498.331 57.9773 498.331 58.5682C498.331 59.1742 498.426 59.7102 498.615 60.1761C498.808 60.6383 499.092 61.0019 499.467 61.267C499.846 61.5284 500.316 61.6591 500.876 61.6591ZM510.808 63.1818C509.967 63.1818 509.242 62.9962 508.632 62.625C508.026 62.25 507.558 61.7273 507.229 61.0568C506.903 60.3826 506.74 59.5985 506.74 58.7045C506.74 57.8106 506.903 57.0227 507.229 56.3409C507.558 55.6553 508.017 55.1212 508.604 54.7386C509.195 54.3523 509.884 54.1591 510.672 54.1591C511.126 54.1591 511.575 54.2348 512.018 54.3864C512.462 54.5379 512.865 54.7841 513.229 55.125C513.592 55.4621 513.882 55.9091 514.098 56.4659C514.314 57.0227 514.422 57.7083 514.422 58.5227V59.0909H507.695V57.9318H513.058C513.058 57.4394 512.96 57 512.763 56.6136C512.57 56.2273 512.293 55.9223 511.933 55.6989C511.577 55.4754 511.157 55.3636 510.672 55.3636C510.138 55.3636 509.676 55.4962 509.286 55.7614C508.899 56.0227 508.602 56.3636 508.393 56.7841C508.185 57.2045 508.081 57.6553 508.081 58.1364V58.9091C508.081 59.5682 508.195 60.1269 508.422 60.5852C508.653 61.0398 508.973 61.3864 509.382 61.625C509.791 61.8598 510.267 61.9773 510.808 61.9773C511.161 61.9773 511.479 61.928 511.763 61.8295C512.051 61.7273 512.299 61.5758 512.507 61.375C512.715 61.1705 512.876 60.9167 512.99 60.6136L514.286 60.9773C514.149 61.4167 513.92 61.803 513.598 62.1364C513.276 62.4659 512.878 62.7235 512.405 62.9091C511.931 63.0909 511.399 63.1818 510.808 63.1818ZM522.643 56.2273L521.439 56.5682C521.363 56.3674 521.251 56.1723 521.104 55.983C520.96 55.7898 520.763 55.6307 520.513 55.5057C520.263 55.3807 519.943 55.3182 519.553 55.3182C519.018 55.3182 518.573 55.4413 518.217 55.6875C517.865 55.9299 517.689 56.2386 517.689 56.6136C517.689 56.947 517.81 57.2102 518.053 57.4034C518.295 57.5966 518.674 57.7576 519.189 57.8864L520.484 58.2045C521.265 58.3939 521.846 58.6837 522.229 59.0739C522.611 59.4602 522.803 59.9583 522.803 60.5682C522.803 61.0682 522.659 61.5152 522.371 61.9091C522.087 62.303 521.689 62.6136 521.178 62.8409C520.666 63.0682 520.071 63.1818 519.393 63.1818C518.503 63.1818 517.767 62.9886 517.183 62.6023C516.6 62.2159 516.231 61.6515 516.075 60.9091L517.348 60.5909C517.469 61.0606 517.698 61.4129 518.036 61.6477C518.376 61.8826 518.821 62 519.371 62C519.996 62 520.492 61.8674 520.859 61.6023C521.231 61.3333 521.416 61.0114 521.416 60.6364C521.416 60.3333 521.31 60.0795 521.098 59.875C520.886 59.6667 520.56 59.5114 520.121 59.4091L518.666 59.0682C517.867 58.8788 517.28 58.5852 516.905 58.1875C516.534 57.786 516.348 57.2841 516.348 56.6818C516.348 56.1894 516.486 55.7538 516.763 55.375C517.043 54.9962 517.424 54.6989 517.905 54.483C518.39 54.267 518.939 54.1591 519.553 54.1591C520.416 54.1591 521.094 54.3485 521.587 54.7273C522.083 55.1061 522.435 55.6061 522.643 56.2273Z" fill="#EDEDED"/>
<path d="M566.773 55H565.364C565.28 54.5947 565.134 54.2386 564.926 53.9318C564.722 53.625 564.472 53.3674 564.176 53.1591C563.884 52.947 563.561 52.7879 563.205 52.6818C562.848 52.5758 562.477 52.5227 562.091 52.5227C561.386 52.5227 560.748 52.7008 560.176 53.0568C559.608 53.4129 559.155 53.9375 558.818 54.6307C558.485 55.3239 558.318 56.1742 558.318 57.1818C558.318 58.1894 558.485 59.0398 558.818 59.733C559.155 60.4261 559.608 60.9508 560.176 61.3068C560.748 61.6629 561.386 61.8409 562.091 61.8409C562.477 61.8409 562.848 61.7879 563.205 61.6818C563.561 61.5758 563.884 61.4186 564.176 61.2102C564.472 60.9981 564.722 60.7386 564.926 60.4318C565.134 60.1212 565.28 59.7652 565.364 59.3636H566.773C566.667 59.9583 566.473 60.4905 566.193 60.9602C565.913 61.4299 565.564 61.8295 565.148 62.1591C564.731 62.4848 564.263 62.733 563.744 62.9034C563.229 63.0739 562.678 63.1591 562.091 63.1591C561.098 63.1591 560.216 62.9167 559.443 62.4318C558.67 61.947 558.063 61.2576 557.619 60.3636C557.176 59.4697 556.955 58.4091 556.955 57.1818C556.955 55.9545 557.176 54.8939 557.619 54C558.063 53.1061 558.67 52.4167 559.443 51.9318C560.216 51.447 561.098 51.2045 562.091 51.2045C562.678 51.2045 563.229 51.2898 563.744 51.4602C564.263 51.6307 564.731 51.8807 565.148 52.2102C565.564 52.536 565.913 52.9337 566.193 53.4034C566.473 53.8693 566.667 54.4015 566.773 55ZM572.413 63.1818C571.625 63.1818 570.934 62.9943 570.339 62.6193C569.749 62.2443 569.286 61.7197 568.953 61.0455C568.624 60.3712 568.459 59.5833 568.459 58.6818C568.459 57.7727 568.624 56.9792 568.953 56.3011C569.286 55.6231 569.749 55.0966 570.339 54.7216C570.934 54.3466 571.625 54.1591 572.413 54.1591C573.201 54.1591 573.891 54.3466 574.482 54.7216C575.076 55.0966 575.538 55.6231 575.868 56.3011C576.201 56.9792 576.368 57.7727 576.368 58.6818C576.368 59.5833 576.201 60.3712 575.868 61.0455C575.538 61.7197 575.076 62.2443 574.482 62.6193C573.891 62.9943 573.201 63.1818 572.413 63.1818ZM572.413 61.9773C573.012 61.9773 573.504 61.8239 573.891 61.517C574.277 61.2102 574.563 60.8068 574.749 60.3068C574.934 59.8068 575.027 59.2652 575.027 58.6818C575.027 58.0985 574.934 57.5549 574.749 57.0511C574.563 56.5473 574.277 56.1402 573.891 55.8295C573.504 55.5189 573.012 55.3636 572.413 55.3636C571.815 55.3636 571.322 55.5189 570.936 55.8295C570.55 56.1402 570.264 56.5473 570.078 57.0511C569.893 57.5549 569.8 58.0985 569.8 58.6818C569.8 59.2652 569.893 59.8068 570.078 60.3068C570.264 60.8068 570.55 61.2102 570.936 61.517C571.322 61.8239 571.815 61.9773 572.413 61.9773ZM579.756 57.75V63H578.415V54.2727H579.71V55.6364H579.824C580.028 55.1932 580.339 54.8371 580.756 54.5682C581.172 54.2955 581.71 54.1591 582.369 54.1591C582.96 54.1591 583.477 54.2803 583.92 54.5227C584.364 54.7614 584.708 55.125 584.955 55.6136C585.201 56.0985 585.324 56.7121 585.324 57.4545V63H583.983V57.5455C583.983 56.8598 583.805 56.3258 583.449 55.9432C583.093 55.5568 582.604 55.3636 581.983 55.3636C581.555 55.3636 581.172 55.4564 580.835 55.642C580.502 55.8277 580.239 56.0985 580.045 56.4545C579.852 56.8106 579.756 57.2424 579.756 57.75ZM591.57 54.2727V55.4091H587.047V54.2727H591.57ZM588.365 52.1818H589.706V60.5C589.706 60.8788 589.761 61.1629 589.871 61.3523C589.984 61.5379 590.128 61.6629 590.303 61.7273C590.481 61.7879 590.668 61.8182 590.865 61.8182C591.013 61.8182 591.134 61.8106 591.229 61.7955C591.323 61.7765 591.399 61.7614 591.456 61.75L591.729 62.9545C591.638 62.9886 591.511 63.0227 591.348 63.0568C591.185 63.0947 590.979 63.1136 590.729 63.1136C590.35 63.1136 589.979 63.0322 589.615 62.8693C589.255 62.7064 588.956 62.4583 588.717 62.125C588.482 61.7917 588.365 61.3712 588.365 60.8636V52.1818ZM596.155 63.2045C595.602 63.2045 595.1 63.1004 594.649 62.892C594.198 62.6799 593.84 62.375 593.575 61.9773C593.31 61.5758 593.178 61.0909 593.178 60.5227C593.178 60.0227 593.276 59.6174 593.473 59.3068C593.67 58.9924 593.933 58.7462 594.263 58.5682C594.592 58.3902 594.956 58.2576 595.354 58.1705C595.755 58.0795 596.159 58.0076 596.564 57.9545C597.094 57.8864 597.524 57.8352 597.854 57.8011C598.187 57.7633 598.429 57.7008 598.581 57.6136C598.736 57.5265 598.814 57.375 598.814 57.1591V57.1136C598.814 56.553 598.661 56.1174 598.354 55.8068C598.051 55.4962 597.59 55.3409 596.973 55.3409C596.333 55.3409 595.831 55.4811 595.467 55.7614C595.104 56.0417 594.848 56.3409 594.7 56.6591L593.428 56.2045C593.655 55.6742 593.958 55.2614 594.337 54.9659C594.719 54.6667 595.136 54.4583 595.587 54.3409C596.041 54.2197 596.488 54.1591 596.928 54.1591C597.208 54.1591 597.53 54.1932 597.893 54.2614C598.261 54.3258 598.615 54.4602 598.956 54.6648C599.301 54.8693 599.587 55.178 599.814 55.5909C600.041 56.0038 600.155 56.5568 600.155 57.25V63H598.814V61.8182H598.746C598.655 62.0076 598.503 62.2102 598.291 62.4261C598.079 62.642 597.797 62.8258 597.445 62.9773C597.092 63.1288 596.662 63.2045 596.155 63.2045ZM596.359 62C596.89 62 597.337 61.8958 597.7 61.6875C598.068 61.4792 598.344 61.2102 598.53 60.8807C598.719 60.5511 598.814 60.2045 598.814 59.8409V58.6136C598.757 58.6818 598.632 58.7443 598.439 58.8011C598.25 58.8542 598.03 58.9015 597.78 58.9432C597.534 58.9811 597.293 59.0152 597.058 59.0455C596.827 59.072 596.64 59.0947 596.496 59.1136C596.147 59.1591 595.821 59.233 595.518 59.3352C595.219 59.4337 594.977 59.5833 594.791 59.7841C594.609 59.9811 594.518 60.25 594.518 60.5909C594.518 61.0568 594.691 61.4091 595.036 61.6477C595.384 61.8826 595.825 62 596.359 62ZM606.148 63.1818C605.33 63.1818 604.625 62.9886 604.034 62.6023C603.443 62.2159 602.989 61.6837 602.67 61.0057C602.352 60.3277 602.193 59.553 602.193 58.6818C602.193 57.7955 602.356 57.0133 602.682 56.3352C603.011 55.6534 603.47 55.1212 604.057 54.7386C604.648 54.3523 605.337 54.1591 606.125 54.1591C606.739 54.1591 607.292 54.2727 607.784 54.5C608.277 54.7273 608.68 55.0455 608.994 55.4545C609.309 55.8636 609.504 56.3409 609.58 56.8864H608.239C608.136 56.4886 607.909 56.1364 607.557 55.8295C607.208 55.5189 606.739 55.3636 606.148 55.3636C605.625 55.3636 605.167 55.5 604.773 55.7727C604.383 56.0417 604.078 56.4223 603.858 56.9148C603.642 57.4034 603.534 57.9773 603.534 58.6364C603.534 59.3106 603.64 59.8977 603.852 60.3977C604.068 60.8977 604.371 61.286 604.761 61.5625C605.155 61.839 605.617 61.9773 606.148 61.9773C606.496 61.9773 606.812 61.9167 607.097 61.7955C607.381 61.6742 607.621 61.5 607.818 61.2727C608.015 61.0455 608.155 60.7727 608.239 60.4545H609.58C609.504 60.9697 609.316 61.4337 609.017 61.8466C608.722 62.2557 608.33 62.5814 607.841 62.8239C607.356 63.0625 606.792 63.1818 606.148 63.1818ZM615.335 54.2727V55.4091H610.812V54.2727H615.335ZM612.131 52.1818H613.472V60.5C613.472 60.8788 613.527 61.1629 613.636 61.3523C613.75 61.5379 613.894 61.6629 614.068 61.7273C614.246 61.7879 614.434 61.8182 614.631 61.8182C614.778 61.8182 614.9 61.8106 614.994 61.7955C615.089 61.7765 615.165 61.7614 615.222 61.75L615.494 62.9545C615.403 62.9886 615.277 63.0227 615.114 63.0568C614.951 63.0947 614.744 63.1136 614.494 63.1136C614.116 63.1136 613.744 63.0322 613.381 62.8693C613.021 62.7064 612.722 62.4583 612.483 62.125C612.248 61.7917 612.131 61.3712 612.131 60.8636V52.1818Z" fill="#EDEDED"/>
<path d="M1059.32 54.7102C1059.28 54.2519 1059.08 53.8958 1058.74 53.642C1058.39 53.3883 1057.93 53.2614 1057.34 53.2614C1056.93 53.2614 1056.59 53.3182 1056.32 53.4318C1056.04 53.5417 1055.83 53.6951 1055.68 53.892C1055.54 54.089 1055.47 54.3125 1055.47 54.5625C1055.46 54.7708 1055.5 54.9527 1055.6 55.108C1055.7 55.2633 1055.83 55.3977 1056 55.5114C1056.17 55.6212 1056.37 55.7178 1056.59 55.8011C1056.81 55.8807 1057.05 55.9489 1057.31 56.0057L1058.35 56.2557C1058.86 56.3693 1059.33 56.5208 1059.75 56.7102C1060.17 56.8996 1060.54 57.1326 1060.85 57.4091C1061.16 57.6856 1061.4 58.0114 1061.57 58.3864C1061.75 58.7614 1061.84 59.1913 1061.84 59.6761C1061.84 60.3883 1061.66 61.0057 1061.3 61.5284C1060.94 62.0473 1060.42 62.4508 1059.75 62.7386C1059.08 63.0227 1058.27 63.1648 1057.32 63.1648C1056.38 63.1648 1055.57 63.0208 1054.87 62.733C1054.18 62.4451 1053.63 62.0189 1053.24 61.4545C1052.86 60.8864 1052.66 60.1837 1052.64 59.3466H1055.02C1055.04 59.7367 1055.16 60.0625 1055.35 60.3239C1055.55 60.5814 1055.82 60.7765 1056.15 60.9091C1056.49 61.0379 1056.87 61.1023 1057.3 61.1023C1057.71 61.1023 1058.07 61.0417 1058.38 60.9205C1058.69 60.7992 1058.93 60.6307 1059.1 60.4148C1059.27 60.1989 1059.36 59.9508 1059.36 59.6705C1059.36 59.4091 1059.28 59.1894 1059.12 59.0114C1058.97 58.8333 1058.75 58.6818 1058.45 58.5568C1058.16 58.4318 1057.8 58.3182 1057.38 58.2159L1056.11 57.8977C1055.13 57.6591 1054.36 57.286 1053.79 56.7784C1053.22 56.2708 1052.94 55.5871 1052.94 54.7273C1052.94 54.0227 1053.13 53.4072 1053.51 52.8807C1053.89 52.3542 1054.41 51.9432 1055.08 51.6477C1055.75 51.3523 1056.5 51.2045 1057.35 51.2045C1058.22 51.2045 1058.97 51.3523 1059.61 51.6477C1060.26 51.9432 1060.77 52.3542 1061.12 52.8807C1061.48 53.4072 1061.67 54.017 1061.68 54.7102H1059.32ZM1063.45 63V54.2727H1065.87V63H1063.45ZM1064.67 53.1477C1064.31 53.1477 1064 53.0284 1063.74 52.7898C1063.49 52.5473 1063.36 52.2576 1063.36 51.9205C1063.36 51.5871 1063.49 51.3011 1063.74 51.0625C1064 50.8201 1064.31 50.6989 1064.67 50.6989C1065.03 50.6989 1065.33 50.8201 1065.59 51.0625C1065.84 51.3011 1065.97 51.5871 1065.97 51.9205C1065.97 52.2576 1065.84 52.5473 1065.59 52.7898C1065.33 53.0284 1065.03 53.1477 1064.67 53.1477ZM1071.74 66.4545C1070.96 66.4545 1070.29 66.3466 1069.72 66.1307C1069.17 65.9186 1068.72 65.6288 1068.39 65.2614C1068.07 64.8939 1067.85 64.4811 1067.75 64.0227L1069.99 63.7216C1070.06 63.8958 1070.17 64.0587 1070.32 64.2102C1070.46 64.3617 1070.66 64.483 1070.9 64.5739C1071.15 64.6686 1071.45 64.7159 1071.8 64.7159C1072.32 64.7159 1072.76 64.5871 1073.1 64.3295C1073.44 64.0758 1073.62 63.6496 1073.62 63.0511V61.4545H1073.51C1073.41 61.697 1073.25 61.9261 1073.04 62.142C1072.82 62.358 1072.55 62.5341 1072.22 62.6705C1071.89 62.8068 1071.49 62.875 1071.03 62.875C1070.37 62.875 1069.77 62.7235 1069.24 62.4205C1068.7 62.1136 1068.28 61.6458 1067.96 61.017C1067.64 60.3845 1067.49 59.5852 1067.49 58.6193C1067.49 57.6307 1067.65 56.8049 1067.97 56.142C1068.29 55.4792 1068.72 54.983 1069.25 54.6534C1069.79 54.3239 1070.38 54.1591 1071.02 54.1591C1071.51 54.1591 1071.92 54.2424 1072.25 54.4091C1072.58 54.572 1072.84 54.7765 1073.04 55.0227C1073.25 55.2652 1073.4 55.5038 1073.51 55.7386H1073.61V54.2727H1076.01V63.0852C1076.01 63.8277 1075.83 64.4489 1075.46 64.9489C1075.1 65.4489 1074.6 65.8239 1073.95 66.0739C1073.31 66.3277 1072.57 66.4545 1071.74 66.4545ZM1071.79 61.0568C1072.18 61.0568 1072.51 60.9602 1072.78 60.767C1073.05 60.5701 1073.26 60.2898 1073.41 59.9261C1073.55 59.5587 1073.63 59.1193 1073.63 58.608C1073.63 58.0966 1073.56 57.6534 1073.41 57.2784C1073.27 56.8996 1073.06 56.6061 1072.79 56.3977C1072.51 56.1894 1072.18 56.0852 1071.79 56.0852C1071.39 56.0852 1071.06 56.1932 1070.79 56.4091C1070.51 56.6212 1070.31 56.9167 1070.17 57.2955C1070.03 57.6742 1069.96 58.1117 1069.96 58.608C1069.96 59.1117 1070.03 59.5473 1070.17 59.9148C1070.31 60.2784 1070.52 60.5606 1070.79 60.7614C1071.06 60.9583 1071.39 61.0568 1071.79 61.0568ZM1080.36 57.9545V63H1077.93V54.2727H1080.24V55.8125H1080.34C1080.54 55.3049 1080.86 54.9034 1081.32 54.608C1081.77 54.3087 1082.32 54.1591 1082.97 54.1591C1083.57 54.1591 1084.1 54.2917 1084.55 54.5568C1085 54.822 1085.36 55.2008 1085.61 55.6932C1085.86 56.1818 1085.98 56.7652 1085.98 57.4432V63H1083.56V57.875C1083.56 57.3409 1083.43 56.9242 1083.15 56.625C1082.87 56.322 1082.49 56.1705 1082.01 56.1705C1081.68 56.1705 1081.39 56.2405 1081.14 56.3807C1080.9 56.5208 1080.71 56.7254 1080.57 56.9943C1080.43 57.2595 1080.36 57.5795 1080.36 57.9545ZM1094.1 51.3636V63H1091.64V51.3636H1094.1ZM1098.5 57.9545V63H1096.08V54.2727H1098.38V55.8125H1098.48C1098.68 55.3049 1099 54.9034 1099.46 54.608C1099.91 54.3087 1100.46 54.1591 1101.11 54.1591C1101.72 54.1591 1102.24 54.2917 1102.69 54.5568C1103.15 54.822 1103.5 55.2008 1103.75 55.6932C1104 56.1818 1104.12 56.7652 1104.12 57.4432V63H1101.7V57.875C1101.7 57.3409 1101.57 56.9242 1101.29 56.625C1101.01 56.322 1100.63 56.1705 1100.15 56.1705C1099.82 56.1705 1099.54 56.2405 1099.29 56.3807C1099.04 56.5208 1098.85 56.7254 1098.71 56.9943C1098.57 57.2595 1098.5 57.5795 1098.5 57.9545Z" fill="white"/>
<rect x="1138" y="29" width="182" height="56" rx="8" fill="#1877F2"/>
<path d="M1173.39 55.125C1173.31 54.8485 1173.2 54.6042 1173.06 54.392C1172.91 54.1761 1172.74 53.9943 1172.53 53.8466C1172.32 53.6951 1172.09 53.5795 1171.82 53.5C1171.56 53.4205 1171.27 53.3807 1170.95 53.3807C1170.36 53.3807 1169.84 53.5284 1169.39 53.8239C1168.94 54.1193 1168.59 54.5492 1168.34 55.1136C1168.09 55.6742 1167.97 56.3598 1167.97 57.1705C1167.97 57.9811 1168.09 58.6705 1168.33 59.2386C1168.58 59.8068 1168.93 60.2405 1169.38 60.5398C1169.83 60.8352 1170.36 60.983 1170.98 60.983C1171.53 60.983 1172.01 60.8845 1172.4 60.6875C1172.8 60.4867 1173.1 60.2045 1173.31 59.8409C1173.52 59.4773 1173.63 59.0473 1173.63 58.5511L1174.13 58.625H1171.13V56.7727H1176V58.2386C1176 59.2614 1175.78 60.1402 1175.35 60.875C1174.92 61.6061 1174.33 62.1705 1173.57 62.5682C1172.81 62.9621 1171.94 63.1591 1170.97 63.1591C1169.87 63.1591 1168.92 62.9186 1168.09 62.4375C1167.26 61.9527 1166.62 61.2652 1166.16 60.375C1165.7 59.4811 1165.47 58.4205 1165.47 57.1932C1165.47 56.25 1165.61 55.4091 1165.88 54.6705C1166.16 53.928 1166.54 53.2992 1167.04 52.7841C1167.54 52.2689 1168.11 51.8769 1168.77 51.608C1169.43 51.339 1170.15 51.2045 1170.91 51.2045C1171.57 51.2045 1172.19 51.3011 1172.75 51.4943C1173.32 51.6837 1173.83 51.9527 1174.27 52.3011C1174.71 52.6496 1175.07 53.0644 1175.35 53.5455C1175.63 54.0227 1175.81 54.5492 1175.89 55.125H1173.39ZM1181.78 63.1705C1180.88 63.1705 1180.11 62.9886 1179.46 62.625C1178.82 62.2576 1178.32 61.7386 1177.97 61.0682C1177.62 60.3939 1177.45 59.5966 1177.45 58.6761C1177.45 57.7784 1177.62 56.9905 1177.97 56.3125C1178.32 55.6345 1178.81 55.1061 1179.44 54.7273C1180.08 54.3485 1180.83 54.1591 1181.68 54.1591C1182.26 54.1591 1182.79 54.2519 1183.29 54.4375C1183.79 54.6193 1184.23 54.8939 1184.6 55.2614C1184.97 55.6288 1185.26 56.0909 1185.47 56.6477C1185.68 57.2008 1185.78 57.8485 1185.78 58.5909V59.2557H1178.42V57.7557H1183.51C1183.51 57.4072 1183.43 57.0985 1183.28 56.8295C1183.13 56.5606 1182.92 56.3504 1182.65 56.1989C1182.38 56.0436 1182.07 55.9659 1181.72 55.9659C1181.35 55.9659 1181.03 56.0511 1180.75 56.2216C1180.46 56.3883 1180.25 56.6136 1180.09 56.8977C1179.93 57.178 1179.85 57.4905 1179.84 57.8352V59.2614C1179.84 59.6932 1179.92 60.0663 1180.08 60.3807C1180.24 60.6951 1180.47 60.9375 1180.77 61.108C1181.06 61.2784 1181.41 61.3636 1181.82 61.3636C1182.09 61.3636 1182.33 61.3258 1182.56 61.25C1182.78 61.1742 1182.97 61.0606 1183.13 60.9091C1183.29 60.7576 1183.41 60.572 1183.5 60.3523L1185.73 60.5C1185.62 61.0379 1185.39 61.5076 1185.03 61.9091C1184.69 62.3068 1184.24 62.6174 1183.68 62.8409C1183.13 63.0606 1182.5 63.1705 1181.78 63.1705ZM1192.01 54.2727V56.0909H1186.75V54.2727H1192.01ZM1187.94 52.1818H1190.36V60.3182C1190.36 60.5417 1190.4 60.7159 1190.47 60.8409C1190.53 60.9621 1190.63 61.0473 1190.75 61.0966C1190.88 61.1458 1191.02 61.1705 1191.18 61.1705C1191.3 61.1705 1191.41 61.161 1191.52 61.142C1191.64 61.1193 1191.72 61.1023 1191.78 61.0909L1192.17 62.892C1192.04 62.9299 1191.87 62.9735 1191.65 63.0227C1191.43 63.0758 1191.17 63.108 1190.85 63.1193C1190.27 63.142 1189.76 63.0644 1189.32 62.8864C1188.88 62.7083 1188.54 62.4318 1188.3 62.0568C1188.06 61.6818 1187.94 61.2083 1187.94 60.6364V52.1818ZM1203.64 54.7102C1203.6 54.2519 1203.4 53.8958 1203.06 53.642C1202.71 53.3883 1202.25 53.2614 1201.66 53.2614C1201.25 53.2614 1200.92 53.3182 1200.64 53.4318C1200.36 53.5417 1200.15 53.6951 1200 53.892C1199.86 54.089 1199.79 54.3125 1199.79 54.5625C1199.78 54.7708 1199.82 54.9527 1199.92 55.108C1200.02 55.2633 1200.15 55.3977 1200.32 55.5114C1200.49 55.6212 1200.69 55.7178 1200.91 55.8011C1201.13 55.8807 1201.37 55.9489 1201.63 56.0057L1202.67 56.2557C1203.18 56.3693 1203.65 56.5208 1204.07 56.7102C1204.49 56.8996 1204.86 57.1326 1205.17 57.4091C1205.48 57.6856 1205.72 58.0114 1205.89 58.3864C1206.07 58.7614 1206.16 59.1913 1206.16 59.6761C1206.16 60.3883 1205.98 61.0057 1205.62 61.5284C1205.26 62.0473 1204.74 62.4508 1204.07 62.7386C1203.4 63.0227 1202.59 63.1648 1201.64 63.1648C1200.7 63.1648 1199.89 63.0208 1199.19 62.733C1198.5 62.4451 1197.95 62.0189 1197.56 61.4545C1197.18 60.8864 1196.98 60.1837 1196.96 59.3466H1199.34C1199.36 59.7367 1199.48 60.0625 1199.67 60.3239C1199.87 60.5814 1200.14 60.7765 1200.47 60.9091C1200.81 61.0379 1201.19 61.1023 1201.62 61.1023C1202.03 61.1023 1202.39 61.0417 1202.7 60.9205C1203.01 60.7992 1203.25 60.6307 1203.42 60.4148C1203.59 60.1989 1203.68 59.9508 1203.68 59.6705C1203.68 59.4091 1203.6 59.1894 1203.45 59.0114C1203.29 58.8333 1203.07 58.6818 1202.77 58.5568C1202.48 58.4318 1202.13 58.3182 1201.7 58.2159L1200.43 57.8977C1199.45 57.6591 1198.68 57.286 1198.11 56.7784C1197.54 56.2708 1197.26 55.5871 1197.26 54.7273C1197.26 54.0227 1197.45 53.4072 1197.83 52.8807C1198.21 52.3542 1198.73 51.9432 1199.4 51.6477C1200.07 51.3523 1200.82 51.2045 1201.67 51.2045C1202.54 51.2045 1203.29 51.3523 1203.93 51.6477C1204.58 51.9432 1205.09 52.3542 1205.45 52.8807C1205.81 53.4072 1205.99 54.017 1206 54.7102H1203.64ZM1212.41 54.2727V56.0909H1207.16V54.2727H1212.41ZM1208.35 52.1818H1210.77V60.3182C1210.77 60.5417 1210.8 60.7159 1210.87 60.8409C1210.94 60.9621 1211.04 61.0473 1211.16 61.0966C1211.28 61.1458 1211.43 61.1705 1211.59 61.1705C1211.7 61.1705 1211.82 61.161 1211.93 61.142C1212.04 61.1193 1212.13 61.1023 1212.19 61.0909L1212.57 62.892C1212.45 62.9299 1212.28 62.9735 1212.06 63.0227C1211.84 63.0758 1211.57 63.108 1211.26 63.1193C1210.68 63.142 1210.16 63.0644 1209.73 62.8864C1209.29 62.7083 1208.95 62.4318 1208.71 62.0568C1208.47 61.6818 1208.35 61.2083 1208.35 60.6364V52.1818ZM1216.48 63.1648C1215.92 63.1648 1215.42 63.0682 1214.99 62.875C1214.55 62.678 1214.21 62.3883 1213.96 62.0057C1213.71 61.6193 1213.58 61.1383 1213.58 60.5625C1213.58 60.0777 1213.67 59.6705 1213.85 59.3409C1214.03 59.0114 1214.27 58.7462 1214.57 58.5455C1214.88 58.3447 1215.23 58.1932 1215.62 58.0909C1216.01 57.9886 1216.43 57.9167 1216.86 57.875C1217.37 57.822 1217.78 57.7727 1218.09 57.7273C1218.4 57.678 1218.62 57.6061 1218.76 57.5114C1218.9 57.4167 1218.97 57.2765 1218.97 57.0909V57.0568C1218.97 56.697 1218.86 56.4186 1218.63 56.2216C1218.41 56.0246 1218.09 55.9261 1217.68 55.9261C1217.24 55.9261 1216.89 56.0227 1216.64 56.2159C1216.38 56.4053 1216.21 56.6439 1216.13 56.9318L1213.89 56.75C1214 56.2197 1214.22 55.7614 1214.56 55.375C1214.89 54.9848 1215.32 54.6856 1215.85 54.4773C1216.38 54.2652 1216.99 54.1591 1217.69 54.1591C1218.17 54.1591 1218.64 54.2159 1219.08 54.3295C1219.53 54.4432 1219.92 54.6193 1220.27 54.858C1220.62 55.0966 1220.89 55.4034 1221.09 55.7784C1221.29 56.1496 1221.39 56.5947 1221.39 57.1136V63H1219.1V61.7898H1219.03C1218.89 62.0625 1218.7 62.303 1218.47 62.5114C1218.23 62.7159 1217.95 62.8769 1217.62 62.9943C1217.29 63.108 1216.91 63.1648 1216.48 63.1648ZM1217.17 61.4943C1217.53 61.4943 1217.84 61.4242 1218.11 61.2841C1218.39 61.1402 1218.6 60.947 1218.76 60.7045C1218.91 60.4621 1218.99 60.1875 1218.99 59.8807V58.9545C1218.91 59.0038 1218.81 59.0492 1218.68 59.0909C1218.55 59.1288 1218.4 59.1648 1218.24 59.1989C1218.08 59.2292 1217.91 59.2576 1217.75 59.2841C1217.59 59.3068 1217.44 59.3277 1217.31 59.3466C1217.02 59.3883 1216.78 59.4545 1216.56 59.5455C1216.35 59.6364 1216.19 59.7595 1216.07 59.9148C1215.95 60.0663 1215.89 60.2557 1215.89 60.483C1215.89 60.8125 1216.01 61.0644 1216.25 61.2386C1216.49 61.4091 1216.8 61.4943 1217.17 61.4943ZM1223.27 63V54.2727H1225.62V55.7955H1225.71C1225.87 55.2538 1226.13 54.8447 1226.51 54.5682C1226.88 54.2879 1227.32 54.1477 1227.8 54.1477C1227.93 54.1477 1228.06 54.1553 1228.2 54.1705C1228.34 54.1856 1228.46 54.2064 1228.57 54.233V56.3807C1228.45 56.3466 1228.3 56.3163 1228.09 56.2898C1227.89 56.2633 1227.71 56.25 1227.54 56.25C1227.19 56.25 1226.87 56.3277 1226.59 56.483C1226.31 56.6345 1226.09 56.8466 1225.93 57.1193C1225.77 57.392 1225.69 57.7064 1225.69 58.0625V63H1223.27ZM1234.9 54.2727V56.0909H1229.64V54.2727H1234.9ZM1230.83 52.1818H1233.25V60.3182C1233.25 60.5417 1233.29 60.7159 1233.36 60.8409C1233.43 60.9621 1233.52 61.0473 1233.64 61.0966C1233.77 61.1458 1233.91 61.1705 1234.07 61.1705C1234.19 61.1705 1234.3 61.161 1234.41 61.142C1234.53 61.1193 1234.61 61.1023 1234.68 61.0909L1235.06 62.892C1234.93 62.9299 1234.76 62.9735 1234.54 63.0227C1234.33 63.0758 1234.06 63.108 1233.74 63.1193C1233.16 63.142 1232.65 63.0644 1232.21 62.8864C1231.77 62.7083 1231.43 62.4318 1231.19 62.0568C1230.95 61.6818 1230.83 61.2083 1230.83 60.6364V52.1818ZM1240.36 63.1705C1239.46 63.1705 1238.69 62.9886 1238.04 62.625C1237.4 62.2576 1236.9 61.7386 1236.55 61.0682C1236.2 60.3939 1236.03 59.5966 1236.03 58.6761C1236.03 57.7784 1236.2 56.9905 1236.55 56.3125C1236.9 55.6345 1237.39 55.1061 1238.02 54.7273C1238.66 54.3485 1239.4 54.1591 1240.26 54.1591C1240.84 54.1591 1241.37 54.2519 1241.87 54.4375C1242.37 54.6193 1242.8 54.8939 1243.18 55.2614C1243.55 55.6288 1243.84 56.0909 1244.05 56.6477C1244.26 57.2008 1244.36 57.8485 1244.36 58.5909V59.2557H1236.99V57.7557H1242.08C1242.08 57.4072 1242.01 57.0985 1241.86 56.8295C1241.71 56.5606 1241.5 56.3504 1241.23 56.1989C1240.96 56.0436 1240.65 55.9659 1240.3 55.9659C1239.93 55.9659 1239.61 56.0511 1239.32 56.2216C1239.04 56.3883 1238.82 56.6136 1238.66 56.8977C1238.5 57.178 1238.42 57.4905 1238.42 57.8352V59.2614C1238.42 59.6932 1238.5 60.0663 1238.66 60.3807C1238.82 60.6951 1239.05 60.9375 1239.35 61.108C1239.64 61.2784 1239.99 61.3636 1240.4 61.3636C1240.67 61.3636 1240.91 61.3258 1241.14 61.25C1241.36 61.1742 1241.55 61.0606 1241.71 60.9091C1241.87 60.7576 1241.99 60.572 1242.07 60.3523L1244.31 60.5C1244.2 61.0379 1243.97 61.5076 1243.61 61.9091C1243.26 62.3068 1242.81 62.6174 1242.26 62.8409C1241.71 63.0606 1241.08 63.1705 1240.36 63.1705ZM1249.16 63.142C1248.5 63.142 1247.9 62.9716 1247.36 62.6307C1246.82 62.286 1246.4 61.7803 1246.08 61.1136C1245.77 60.4432 1245.62 59.6212 1245.62 58.6477C1245.62 57.6477 1245.78 56.8163 1246.1 56.1534C1246.42 55.4867 1246.85 54.9886 1247.39 54.6591C1247.92 54.3258 1248.51 54.1591 1249.15 54.1591C1249.64 54.1591 1250.05 54.2424 1250.37 54.4091C1250.7 54.572 1250.97 54.7765 1251.17 55.0227C1251.37 55.2652 1251.53 55.5038 1251.64 55.7386H1251.71V51.3636H1254.12V63H1251.74V61.6023H1251.64C1251.52 61.8447 1251.36 62.0852 1251.15 62.3239C1250.95 62.5587 1250.68 62.7538 1250.35 62.9091C1250.03 63.0644 1249.63 63.142 1249.16 63.142ZM1249.93 61.2159C1250.32 61.2159 1250.65 61.1098 1250.91 60.8977C1251.19 60.6818 1251.4 60.3807 1251.54 59.9943C1251.69 59.608 1251.76 59.1553 1251.76 58.6364C1251.76 58.1174 1251.69 57.6667 1251.54 57.2841C1251.4 56.9015 1251.19 56.6061 1250.92 56.3977C1250.65 56.1894 1250.32 56.0852 1249.93 56.0852C1249.53 56.0852 1249.19 56.1932 1248.92 56.4091C1248.65 56.625 1248.44 56.9242 1248.3 57.3068C1248.16 57.6894 1248.09 58.1326 1248.09 58.6364C1248.09 59.1439 1248.16 59.5928 1248.3 59.983C1248.44 60.3693 1248.65 60.6723 1248.92 60.892C1249.19 61.108 1249.53 61.2159 1249.93 61.2159ZM1259.86 63V51.3636H1267.57V53.392H1262.32V56.1648H1267.06V58.1932H1262.32V63H1259.86ZM1269.04 63V54.2727H1271.38V55.7955H1271.47C1271.63 55.2538 1271.9 54.8447 1272.27 54.5682C1272.65 54.2879 1273.08 54.1477 1273.57 54.1477C1273.69 54.1477 1273.82 54.1553 1273.96 54.1705C1274.1 54.1856 1274.23 54.2064 1274.33 54.233V56.3807C1274.22 56.3466 1274.06 56.3163 1273.86 56.2898C1273.66 56.2633 1273.48 56.25 1273.31 56.25C1272.95 56.25 1272.63 56.3277 1272.35 56.483C1272.08 56.6345 1271.86 56.8466 1271.7 57.1193C1271.54 57.392 1271.46 57.7064 1271.46 58.0625V63H1269.04ZM1279.15 63.1705C1278.26 63.1705 1277.48 62.9886 1276.84 62.625C1276.19 62.2576 1275.7 61.7386 1275.35 61.0682C1275 60.3939 1274.82 59.5966 1274.82 58.6761C1274.82 57.7784 1275 56.9905 1275.35 56.3125C1275.7 55.6345 1276.19 55.1061 1276.82 54.7273C1277.46 54.3485 1278.2 54.1591 1279.06 54.1591C1279.63 54.1591 1280.17 54.2519 1280.67 54.4375C1281.17 54.6193 1281.6 54.8939 1281.97 55.2614C1282.35 55.6288 1282.64 56.0909 1282.85 56.6477C1283.06 57.2008 1283.16 57.8485 1283.16 58.5909V59.2557H1275.79V57.7557H1280.88C1280.88 57.4072 1280.81 57.0985 1280.65 56.8295C1280.5 56.5606 1280.29 56.3504 1280.02 56.1989C1279.76 56.0436 1279.45 55.9659 1279.1 55.9659C1278.73 55.9659 1278.4 56.0511 1278.12 56.2216C1277.84 56.3883 1277.62 56.6136 1277.46 56.8977C1277.3 57.178 1277.22 57.4905 1277.22 57.8352V59.2614C1277.22 59.6932 1277.3 60.0663 1277.46 60.3807C1277.62 60.6951 1277.85 60.9375 1278.14 61.108C1278.44 61.2784 1278.79 61.3636 1279.19 61.3636C1279.46 61.3636 1279.71 61.3258 1279.93 61.25C1280.16 61.1742 1280.35 61.0606 1280.51 60.9091C1280.67 60.7576 1280.79 60.572 1280.87 60.3523L1283.11 60.5C1283 61.0379 1282.76 61.5076 1282.41 61.9091C1282.06 62.3068 1281.61 62.6174 1281.06 62.8409C1280.51 63.0606 1279.87 63.1705 1279.15 63.1705ZM1288.72 63.1705C1287.82 63.1705 1287.05 62.9886 1286.4 62.625C1285.75 62.2576 1285.26 61.7386 1284.91 61.0682C1284.56 60.3939 1284.39 59.5966 1284.39 58.6761C1284.39 57.7784 1284.56 56.9905 1284.91 56.3125C1285.26 55.6345 1285.75 55.1061 1286.38 54.7273C1287.02 54.3485 1287.76 54.1591 1288.62 54.1591C1289.2 54.1591 1289.73 54.2519 1290.23 54.4375C1290.73 54.6193 1291.16 54.8939 1291.53 55.2614C1291.91 55.6288 1292.2 56.0909 1292.41 56.6477C1292.62 57.2008 1292.72 57.8485 1292.72 58.5909V59.2557H1285.35V57.7557H1290.44C1290.44 57.4072 1290.37 57.0985 1290.22 56.8295C1290.07 56.5606 1289.85 56.3504 1289.59 56.1989C1289.32 56.0436 1289.01 55.9659 1288.66 55.9659C1288.29 55.9659 1287.97 56.0511 1287.68 56.2216C1287.4 56.3883 1287.18 56.6136 1287.02 56.8977C1286.86 57.178 1286.78 57.4905 1286.78 57.8352V59.2614C1286.78 59.6932 1286.86 60.0663 1287.02 60.3807C1287.18 60.6951 1287.41 60.9375 1287.71 61.108C1288 61.2784 1288.35 61.3636 1288.76 61.3636C1289.03 61.3636 1289.27 61.3258 1289.5 61.25C1289.72 61.1742 1289.91 61.0606 1290.07 60.9091C1290.23 60.7576 1290.35 60.572 1290.43 60.3523L1292.67 60.5C1292.56 61.0379 1292.32 61.5076 1291.97 61.9091C1291.62 62.3068 1291.17 62.6174 1290.62 62.8409C1290.07 63.0606 1289.44 63.1705 1288.72 63.1705Z" fill="white"/>
<path d="M188.146 61.9848L192.722 64.3558C191.765 65.6044 190.566 66.6072 189.123 67.3643C187.681 68.1214 186.107 68.5 184.401 68.5C182.487 68.5 180.74 68.0285 179.159 67.0854C177.592 66.1423 176.337 64.8805 175.394 63.2998C174.465 61.7059 174 59.9459 174 58.0199C174 56.5588 174.27 55.1973 174.811 53.9355C175.352 52.6603 176.094 51.5446 177.037 50.5882C177.994 49.6186 179.103 48.8615 180.365 48.3169C181.627 47.7723 182.973 47.5 184.401 47.5C186.107 47.5 187.681 47.8786 189.123 48.6357C190.566 49.3928 191.765 50.4089 192.722 51.6841L188.146 54.0351C187.66 53.5038 187.085 53.092 186.419 52.7998C185.767 52.5076 185.095 52.3615 184.401 52.3615C183.403 52.3615 182.501 52.6271 181.697 53.1584C180.892 53.6765 180.255 54.3672 179.783 55.2305C179.312 56.0806 179.076 57.0104 179.076 58.0199C179.076 59.0161 179.312 59.9459 179.783 60.8093C180.255 61.6594 180.892 62.3435 181.697 62.8615C182.501 63.3795 183.403 63.6385 184.401 63.6385C185.122 63.6385 185.809 63.4924 186.461 63.2002C187.112 62.8947 187.674 62.4896 188.146 61.9848Z" fill="white"/>
<path d="M204.96 68.5C203.046 68.5 201.298 68.0285 199.717 67.0854C198.15 66.1423 196.895 64.8805 195.952 63.2998C195.023 61.7059 194.558 59.9459 194.558 58.0199C194.558 56.5588 194.829 55.1973 195.37 53.9355C195.911 52.6603 196.653 51.5446 197.596 50.5882C198.552 49.6186 199.662 48.8615 200.924 48.3169C202.186 47.7723 203.531 47.5 204.96 47.5C206.873 47.5 208.614 47.9715 210.181 48.9146C211.762 49.8577 213.017 51.1262 213.946 52.7201C214.889 54.314 215.361 56.0806 215.361 58.0199C215.361 59.4677 215.09 60.8226 214.549 62.0844C214.009 63.3463 213.26 64.4621 212.303 65.4317C211.36 66.388 210.257 67.1385 208.995 67.6831C207.747 68.2277 206.402 68.5 204.96 68.5ZM204.96 63.6385C205.972 63.6385 206.88 63.3795 207.685 62.8615C208.489 62.3435 209.12 61.6594 209.578 60.8093C210.049 59.9592 210.285 59.0294 210.285 58.0199C210.285 56.9839 210.042 56.0408 209.557 55.1907C209.085 54.3273 208.44 53.6433 207.622 53.1385C206.818 52.6205 205.93 52.3615 204.96 52.3615C203.961 52.3615 203.06 52.6205 202.255 53.1385C201.451 53.6565 200.813 54.3472 200.341 55.2106C199.87 56.074 199.634 57.0104 199.634 58.0199C199.634 59.0693 199.877 60.019 200.362 60.8691C200.848 61.7192 201.493 62.3966 202.297 62.9013C203.115 63.3928 204.003 63.6385 204.96 63.6385Z" fill="white"/>
<path d="M231.578 61.9848L236.155 64.3558C235.198 65.6044 233.998 66.6072 232.556 67.3643C231.114 68.1214 229.54 68.5 227.834 68.5C225.92 68.5 224.173 68.0285 222.592 67.0854C221.025 66.1423 219.77 64.8805 218.827 63.2998C217.897 61.7059 217.433 59.9459 217.433 58.0199C217.433 56.5588 217.703 55.1973 218.244 53.9355C218.785 52.6603 219.527 51.5446 220.47 50.5882C221.427 49.6186 222.536 48.8615 223.798 48.3169C225.06 47.7723 226.405 47.5 227.834 47.5C229.54 47.5 231.114 47.8786 232.556 48.6357C233.998 49.3928 235.198 50.4089 236.155 51.6841L231.578 54.0351C231.093 53.5038 230.517 53.092 229.852 52.7998C229.2 52.5076 228.527 52.3615 227.834 52.3615C226.835 52.3615 225.934 52.6271 225.13 53.1584C224.325 53.6765 223.687 54.3672 223.216 55.2305C222.744 56.0806 222.509 57.0104 222.509 58.0199C222.509 59.0161 222.744 59.9459 223.216 60.8093C223.687 61.6594 224.325 62.3435 225.13 62.8615C225.934 63.3795 226.835 63.6385 227.834 63.6385C228.555 63.6385 229.242 63.4924 229.893 63.2002C230.545 62.8947 231.107 62.4896 231.578 61.9848Z" fill="white"/>
<path d="M254.924 48.0579H260V67.982H254.924L254.695 65.5114C254.127 66.4013 253.371 67.1252 252.428 67.6831C251.499 68.2277 250.396 68.5 249.12 68.5C247.581 68.5 246.139 68.2211 244.794 67.6632C243.448 67.1053 242.263 66.3349 241.236 65.352C240.224 64.3691 239.427 63.2334 238.844 61.945C238.276 60.6565 237.991 59.2751 237.991 57.8008C237.991 56.3795 238.262 55.0446 238.803 53.796C239.357 52.5474 240.127 51.4516 241.112 50.5085C242.096 49.5655 243.233 48.8283 244.523 48.297C245.813 47.7657 247.2 47.5 248.684 47.5C250.057 47.5 251.284 47.7922 252.366 48.3767C253.461 48.9611 254.39 49.7049 255.153 50.6082L254.924 48.0579ZM248.996 63.8178C250.077 63.8178 251.034 63.5588 251.866 63.0408C252.698 62.5228 253.35 61.8254 253.822 60.9488C254.293 60.0588 254.529 59.0825 254.529 58.0199C254.529 56.944 254.293 55.9677 253.822 55.0911C253.35 54.2011 252.691 53.4972 251.846 52.9791C251.013 52.4611 250.063 52.2021 248.996 52.2021C247.928 52.2021 246.95 52.4677 246.062 52.9991C245.189 53.5171 244.488 54.2144 243.961 55.0911C243.448 55.9677 243.192 56.944 243.192 58.0199C243.192 59.0958 243.455 60.0721 243.982 60.9488C244.509 61.8254 245.21 62.5228 246.083 63.0408C246.971 63.5588 247.942 63.8178 248.996 63.8178Z" fill="white"/>
<circle cx="141" cy="56.5" r="21" fill="#1877F2"/>
<path d="M147.448 61.4412L152 63.741C150.891 65.1831 149.479 66.3368 147.766 67.2021C146.07 68.0674 144.226 68.5 142.236 68.5C139.984 68.5 137.929 67.9611 136.069 66.8833C134.225 65.8055 132.749 64.3634 131.64 62.5569C130.547 60.7353 130 58.7239 130 56.5228C130 54.8529 130.318 53.297 130.954 51.8548C131.591 50.3975 132.463 49.1224 133.573 48.0294C134.699 46.9213 136.004 46.056 137.488 45.4336C138.973 44.8112 140.555 44.5 142.236 44.5C144.226 44.5 146.07 44.9326 147.766 45.7979C149.479 46.6632 150.891 47.8245 152 49.2818L147.448 51.5816C146.763 50.8226 145.964 50.2457 145.05 49.851C144.136 49.4412 143.198 49.2362 142.236 49.2362C140.898 49.2362 139.683 49.5778 138.59 50.2609C137.513 50.9288 136.656 51.8169 136.02 52.925C135.4 54.018 135.09 55.2173 135.09 56.5228C135.09 57.8131 135.408 59.0123 136.044 60.1205C136.681 61.2135 137.537 62.0939 138.614 62.7619C139.707 63.4298 140.914 63.7638 142.236 63.7638C143.247 63.7638 144.21 63.5512 145.123 63.1262C146.037 62.7011 146.812 62.1395 147.448 61.4412Z" fill="white"/>
</svg>
